# xmcd CD database file
#
# Track frame offsets:
#	150
#	18583
#	36398
#	55930
#	68728
#	99501
#	104073
#	129502
#	156370
#	185130
#	193748
#
# Disc length: 2814 seconds
#
# Revision: 0
# Processed by: cddbd v1.5.2PL0 Copyright (c) Steve Scherf et al.
# Submitted via: CDex 1.75
#
DISCID=a30afc0b
DTITLE=Car Seat Headrest - Teens of Style
DYEAR=2015
DGENRE=New Age
TTITLE0=Sunburned Shirts
TTITLE1=The Drum
TTITLE2=Something Soon
TTITLE3=No Passion
TTITLE4=Times To Die
TTITLE5=psst, teenagers, take off your clo
TTITLE6=Strangers
TTITLE7=Maud Gone
TTITLE8=Los Borrachos 
TTITLE9=Bad Role Models, Old Idols Exhumed
TTITLE10=Oh! Starving
EXTD=YEAR: 2015
EXTT0=
EXTT1=
EXTT2=
EXTT3=
EXTT4=
EXTT5=
EXTT6=
EXTT7=
EXTT8=
EXTT9=
EXTT10=
PLAYORDER=
